<svg width="149" height="148" viewBox="0 0 149 148" fill="none" xmlns="http://www.w3.org/2000/svg">
<g filter="url(#filter0_f)">
<ellipse cx="74.5" cy="74" rx="66.5" ry="66" fill="#721C8B"/>
</g>
<ellipse cx="74.5" cy="73.5" rx="63.5" ry="64.5" fill="#8E0876"/>
<ellipse cx="74" cy="73.5" rx="60" ry="60.5" fill="white"/>
<path d="M114 118.094C108.141 124.41 100.249 128.897 92 131.633C81.4015 134.386 69.3538 134.371 57.5 132.133C49.6877 129.341 41.8674 125.413 34 118.5L35.0779 117.51C40.1263 112.048 43.5894 108.302 51 105.054C68.8058 117.869 78.8618 119.047 97 104.842C104.665 108.187 109.25 111.796 114 118.094Z" fill="#014059" stroke="#014059"/>
<path d="M85 91V96.5C80.1785 98.8391 77.3232 99.4541 72 99.4998C72 102.219 71.5 104.28 71.5 107C68.355 107.476 65.9562 105.756 59.5 102C60.558 101.692 63.5188 100.887 64.8446 100.54L65 100.5V95.75V91H72H85Z" fill="#FFD6B5"/>
<path d="M85 96.5C80.1785 98.8391 77.3232 99.4541 72 99.4998C72 102.219 71.5 104.28 71.5 107C68.355 107.476 65.9562 105.756 59.5 102C60.558 101.692 63.5188 100.887 64.8446 100.54C64.8993 100.526 64.9511 100.513 65 100.5V95.75V91H72H85C85 94.5147 85 96.4853 85 100V100.54L88.5 101.5" stroke="#FFD6B5"/>
<path d="M71.4494 100C76.6124 100.252 79.4506 99.4611 84.4494 97L84.5 100L87.5 101C80.512 106.612 76.9602 107.429 71 106.5C71.2466 103.577 71.3043 102.937 71.4494 100Z" fill="#FFBD86" stroke="#FFBD86"/>
<path d="M97 104.74C78.8618 118.944 68.8058 117.815 51 105C53.3695 103.962 56.1425 102.974 59.5 101.998C71.9573 109.674 78.3039 109.548 88.5 101.5C91.7275 102.607 94.5244 103.659 97 104.74Z" fill="#FF0021" stroke="#FF0021"/>
<path d="M96 50V72.5C94.3068 80.9204 92.3422 84.9118 86 90C76.4681 94.4123 71.4117 94.6046 63 90C57.7201 85.4286 55.6166 82.2701 53.5 75.5V51.5C54.1235 47.8629 55.0189 46.1669 58 44L62 46.5C66.968 47.333 69.4181 47.3862 73 46.5L76 48.5C79.1241 49.5251 80.8757 49.6979 84 48.5C86.6637 46.9715 87.7218 46.0967 89 44.5H91.5C92.3131 44.9728 92.964 45.4155 93.5 45.8735C94.7711 46.96 95.3952 48.1331 96 50Z" fill="#FFD6B5" stroke="#FFD6B5"/>
<path d="M91.3498 46.3069H88.8498L83.8498 50.3069C80.7256 51.5048 78.9739 51.332 75.8498 50.3069L72.8498 48.3069H61.8498L57.8498 45.8069C52.2235 45.0309 48.8126 44.363 46.8498 40.8069C44.9454 39.5082 45.1578 38.209 46.8498 35.3069C48.1529 33.2563 53.7797 32.9404 51.8498 32.3067C49.92 31.6731 62.7428 19.9534 67.8498 20.3069C72.8936 18.5187 75.6249 18.6106 80.3498 20.3069C84.2182 21.6219 86.0527 22.7476 88.8498 25.3069L94.3498 25.8069C97.3809 31 99.2826 33.286 102.85 36.8069V43.3069L101.35 44.3066L93.3498 47.6804L91.3498 46.3069Z" fill="#F4FF88"/>
<path d="M83.8498 50.3069C80.7256 51.5048 78.9739 51.3319 75.8498 50.3069M83.8498 50.3069L88.8498 46.3069C89.8262 46.3069 90.3735 46.3069 91.3498 46.3069L93.3498 47.6804L101.35 44.3066L102.85 43.3069V36.8069C99.2826 33.286 97.3809 31 94.3498 25.8069L88.8498 25.3069C86.0527 22.7476 84.2182 21.6219 80.3498 20.3069C75.6249 18.6106 72.8936 18.5187 67.8498 20.3069C62.7428 19.9534 49.92 31.6731 51.8498 32.3067C53.7797 32.9404 48.1529 33.2563 46.8498 35.3069C45.1578 38.209 44.9454 39.5082 46.8498 40.8069C48.8126 44.363 52.2235 45.0309 57.8498 45.8069M83.8498 50.3069H79.8498H75.8498M75.8498 50.3069L72.8498 48.3069M72.8498 48.3069H61.8498L57.8498 45.8069M72.8498 48.3069L57.8498 45.8069M57.8498 45.8069C57.7247 45.7898 57.9725 45.8238 57.8498 45.8069Z" stroke="#F4FF88"/>
<path d="M96 52.5002L96.5 62.0002H100C100.42 62.5241 101.159 63.5228 101.5 64V54.5V45L93.5 48.3738C94.7711 49.4602 95.3952 50.6333 96 52.5002Z" fill="#F4FF88" stroke="#F4FF88"/>
<path d="M53 50.5002L52.5 60.0002H49C48.5801 60.5241 47.8413 61.5228 47.5 62V52.5V43L55.5 46.3738C54.2289 47.4602 53.6048 48.6333 53 50.5002Z" fill="#F5FF99" stroke="#F4FF88"/>
<path d="M96 61V73.5H99.5C103.5 69.7272 104.664 67.6224 101 62.4998L99.5 61H96Z" fill="#F6A96C" stroke="#F6A96C"/>
<path d="M52.7095 61V73.5H49.2095C45.2098 69.7272 44.0454 67.6224 47.7095 62.4998L49.2095 61H52.7095Z" fill="#F6A96C" stroke="#F6A96C"/>
<path d="M83 80H68.5V83.5C70.0243 86.176 70.9552 87.327 73.5 88.3509H78.8571C81.2562 87.0448 82.1513 85.7717 83 83.5V80Z" fill="#FD8087" stroke="#FD8087"/>
<circle cx="75.5" cy="70.5" r="7.5" fill="#F6A96C"/>
<path d="M81 57C85.1856 55.7471 87.5802 55.5886 92 57" stroke="black" stroke-width="3"/>
<path d="M59 57C63.1856 55.7471 65.5802 55.5886 70 57" stroke="black" stroke-width="3"/>
<ellipse cx="86.5" cy="63.5" rx="1.5" ry="2.5" fill="black"/>
<ellipse cx="64.5" cy="63.5" rx="1.5" ry="2.5" fill="black"/>
<path d="M34 118C39.6504 122.999 42.8225 125.352 48.5 128C52.5823 121.463 54.8131 117.133 62.5 112.5C56.5292 109.397 54.702 108.66 50.5 105C43.2912 108.152 39.8711 111.484 34 118Z" fill="#032837" stroke="#032837"/>
<path d="M70 107C66.282 109.107 65.976 109.59 63 112.5C57.6969 109.676 54.6373 108.759 50.5 105C53.2194 103.676 54.817 102.949 59.5 102C64.1084 105.012 66 105.5 70 107Z" fill="#8F2130" stroke="#8F2130"/>
<path d="M56.5 46H58C59.6219 47.4866 60.4877 47.945 62 48.5C65.8503 48.8079 68.2427 48.819 73 48.5C74.1981 49.4889 74.8509 49.896 76 50.5C81.2182 51.5806 82.2387 51.2032 84 50.5C86.5607 49.2903 87.6798 49.1922 89.5 47H91.5H93L94 49L91.5 50.5H89C87.6677 52.3398 86.4769 53.1722 84 54.5C80.1819 55.2227 78.1119 55.4574 75 54.5L72.5 52.5C67.8475 53.035 65.1079 53.0286 60 52.5C57.4808 52.1185 56.2022 51.1 54 50C54.4051 48.1484 54.8764 47.2327 56.5 46Z" fill="#F6A96C" stroke="#F6A96C"/>
<path d="M56 46L47.5 42V47.8462C49.4926 48.8441 51.1197 49.5501 54 49.8462C54.1522 47.823 54.1105 47.4632 56 46Z" fill="#929E27" stroke="#929E27"/>
<path d="M101.5 44.3969C98.1494 45.8355 96.8689 46.126 94 47.0003L94.5 48.5003C97.7693 48.3052 98.5589 48.8009 101.5 46.3969V44.3969Z" fill="#929E27" stroke="#929E27"/>
<defs>
<filter id="filter0_f" x="0" y="0" width="149" height="148" filterUnits="userSpaceOnUse" color-interpolation-filters="sRGB">
<feFlood flood-opacity="0" result="BackgroundImageFix"/>
<feBlend mode="normal" in="SourceGraphic" in2="BackgroundImageFix" result="shape"/>
<feGaussianBlur stdDeviation="4" result="effect1_foregroundBlur"/>
</filter>
</defs>
</svg>
