<svg width="160" height="160" viewBox="0 0 160 160" fill="none" xmlns="http://www.w3.org/2000/svg">
<g filter="url(#filter0_f)">
<circle cx="80" cy="80" r="72" fill="#721C8B"/>
</g>
<ellipse cx="79.5" cy="79.5" rx="63.5" ry="64.5" fill="#8E0876"/>
<ellipse cx="79" cy="79.5" rx="60" ry="60.5" fill="white"/>
<path d="M118.5 124.5C112.641 130.815 104.249 134.897 96 137.633C85.4015 140.386 73.8538 140.276 62 138.038C54.1877 135.247 46.3674 130.913 38.5 124L39.0779 123.51C44.1263 118.048 47.5894 114.302 55 111.054C72.8058 123.869 82.8618 125.047 101 110.842C108.665 114.187 113.75 118.202 118.5 124.5Z" fill="#014059" stroke="#014059"/>
<path d="M89 97V102.5C84.1785 104.839 81.3232 105.454 76 105.5C76 108.219 75.5 110.28 75.5 113C72.355 113.476 69.9562 111.756 63.5 108C64.558 107.692 67.5188 106.887 68.8446 106.54L69 106.5V101.75V97H76H89Z" fill="#F6A96C"/>
<path d="M89 102.5C84.1785 104.839 81.3232 105.454 76 105.5C76 108.219 75.5 110.28 75.5 113C72.355 113.476 69.9562 111.756 63.5 108C64.558 107.692 67.5188 106.887 68.8446 106.54C68.8993 106.526 68.9511 106.513 69 106.5V101.75V97H76H89C89 100.515 89 102.485 89 106V106.54L92.5 107.5" stroke="#F6A96C"/>
<path d="M76 105.5C81.163 105.752 84.0013 104.961 89 102.5V106.5L92 107.5C85.012 113.112 81.4602 113.929 75.5 113C75.7466 110.077 75.855 108.437 76 105.5Z" fill="#FFBD86" stroke="#FFBD86"/>
<path d="M101 110.74C82.8618 124.944 72.8058 123.815 55 111C57.3695 109.962 60.1425 108.974 63.5 107.998C75.9573 115.674 82.3039 115.548 92.5 107.5C95.7275 108.607 98.5244 109.659 101 110.74Z" fill="#FF0021" stroke="#FF0021"/>
<path d="M100 56V78.5C98.3068 86.9204 96.3422 90.9118 90 96C80.4681 100.412 75.4117 100.605 67 96C61.7201 91.4286 59.6166 88.2701 57.5 81.5V57.5C58.1235 53.8629 59.0189 52.1669 62 50L66 52.5C70.968 53.333 73.4181 53.3862 77 52.5L80 54.5C83.1241 55.5251 84.8757 55.6979 88 54.5C90.6637 52.9715 91.7218 52.0967 93 50.5H95.5C96.3131 50.9728 96.964 51.4155 97.5 51.8735C98.7711 52.96 99.3952 54.1331 100 56Z" fill="#FFBD86" stroke="#FFBD86"/>
<path d="M95.3498 52.3069H92.8498L87.8498 56.3069C84.7256 57.5048 82.9739 57.332 79.8498 56.3069L76.8498 54.3069H65.8498L61.8498 51.8069C56.2235 51.0309 52.8126 50.363 50.8498 46.8069C48.9454 45.5082 49.1578 44.209 50.8498 41.3069C52.1529 39.2563 57.7797 38.9404 55.8498 38.3067C53.92 37.6731 66.7428 25.9534 71.8498 26.3069C76.8936 24.5187 79.6249 24.6106 84.3498 26.3069C88.2182 27.6219 90.0527 28.7476 92.8498 31.3069L98.3498 31.8069C101.381 37 103.283 39.286 106.85 42.8069V49.3069L105.35 50.3066L97.3498 53.6804L95.3498 52.3069Z" fill="#918291"/>
<path d="M87.8498 56.3069C84.7256 57.5048 82.9739 57.3319 79.8498 56.3069M87.8498 56.3069L92.8498 52.3069C93.8262 52.3069 94.3735 52.3069 95.3498 52.3069L97.3498 53.6804L105.35 50.3066L106.85 49.3069V42.8069C103.283 39.286 101.381 37 98.3498 31.8069L92.8498 31.3069C90.0527 28.7476 88.2182 27.6219 84.3498 26.3069C79.6249 24.6106 76.8936 24.5187 71.8498 26.3069C66.7428 25.9534 53.92 37.6731 55.8498 38.3067C57.7797 38.9404 52.1529 39.2563 50.8498 41.3069C49.1578 44.209 48.9454 45.5082 50.8498 46.8069C52.8126 50.363 56.2235 51.0309 61.8498 51.8069M87.8498 56.3069H83.8498H79.8498M79.8498 56.3069L76.8498 54.3069M76.8498 54.3069H65.8498L61.8498 51.8069M76.8498 54.3069L61.8498 51.8069M61.8498 51.8069C61.7247 51.7898 61.9725 51.8238 61.8498 51.8069Z" stroke="#918291"/>
<path d="M100 58.5002L100.5 68.0002H104C104.42 68.5241 105.159 69.5228 105.5 70V60.5V51L97.5 54.3738C98.7711 55.4602 99.3952 56.6333 100 58.5002Z" fill="#CBC4CC" stroke="#CBC4CC"/>
<path d="M57 56.5002L56.5 66.0002H53C52.5801 66.5241 51.8413 67.5228 51.5 68V58.5V49L59.5 52.3738C58.2289 53.4602 57.6048 54.6333 57 56.5002Z" fill="#CBC4CC" stroke="#CBC4CC"/>
<path d="M100 67V79.5H103.5C107.5 75.7272 108.664 73.6224 105 68.4998L103.5 67H100Z" fill="#F6A96C" stroke="#F6A96C"/>
<path d="M56.7095 67V79.5H53.2095C49.2098 75.7272 48.0454 73.6224 51.7095 68.4998L53.2095 67H56.7095Z" fill="#F6A96C" stroke="#F6A96C"/>
<path d="M75.5 74V79C78.2916 82.1279 79.934 82.1288 83 79V74" stroke="#FAB177" stroke-width="3"/>
<path d="M87 86H72.5V89.5C74.0243 92.176 74.9552 93.327 77.5 94.3509H82.8571C85.2562 93.0448 86.1513 91.7717 87 89.5V86Z" fill="#FD8087" stroke="#FD8087"/>
<path d="M85 64C89.1856 62.7471 91.5802 62.5886 96 64" stroke="#918291" stroke-width="3"/>
<path d="M63 64C67.1856 62.7471 69.5802 62.5886 74 64" stroke="#918291" stroke-width="3"/>
<ellipse cx="90.5" cy="69.5" rx="1.5" ry="2.5" fill="#918291"/>
<ellipse cx="68.5" cy="69.5" rx="1.5" ry="2.5" fill="#918291"/>
<path d="M38 124C43.6504 128.999 46.8225 131.352 52.5 134C56.5823 127.463 58.8131 123.133 66.5 118.5C60.5292 115.397 58.702 114.66 54.5 111C47.2912 114.152 43.8711 117.484 38 124Z" fill="#032837" stroke="#032837"/>
<path d="M74 113C70.282 115.107 69.976 115.59 67 118.5C61.6969 115.676 58.6373 114.759 54.5 111C57.2194 109.676 58.817 108.949 63.5 108C68.1084 111.012 70 111.5 74 113Z" fill="#8F2130" stroke="#8F2130"/>
<path d="M60 52.5H61.5C63.1219 53.9866 63.9877 54.445 65.5 55C69.3503 55.3079 71.7427 55.319 76.5 55C77.6981 55.9889 78.3509 56.396 79.5 57C84.7182 58.0806 85.7387 57.7032 87.5 57C90.0607 55.7903 91.1798 54.6922 93 52.5H95L96.5 53.5L97.5 55.5L95 57H92.5C91.1677 58.8398 89.9769 59.6722 87.5 61C83.6819 61.7227 81.6119 61.9574 78.5 61L76 59C71.3475 59.535 68.6079 59.5286 63.5 59C60.9808 58.6185 59.7022 57.6 57.5 56.5C57.9051 54.6484 58.3764 53.7327 60 52.5Z" fill="#F6A96C" stroke="#F6A96C"/>
<path d="M59.9999 52L51.5 48.6538V54.5C53.4926 55.4979 54.6197 56.2039 57.5 56.5C57.6522 54.4768 58.1105 53.4632 59.9999 52Z" fill="#B5ADB6" stroke="#B5ADB6"/>
<path d="M105.5 51C102.149 52.4386 100.369 53.1257 97.5 54L98 55.5C101.269 55.3049 102.559 55.4039 105.5 53V51Z" fill="#B5ADB6" stroke="#B5ADB6"/>
<path d="M145.985 67.641C146.321 69.5827 146.576 71.5525 146.747 73.5467L145.75 73.6318C145.916 75.5655 146 77.5227 146 79.5C146 81.4773 145.916 83.4345 145.75 85.3682L146.747 85.4533C146.576 87.4475 146.321 89.4173 145.985 91.359L144.999 91.1883C144.323 95.0914 143.314 98.8791 142.003 102.521L142.944 102.859C142.268 104.736 141.513 106.574 140.684 108.37L139.776 107.95C138.125 111.523 136.173 114.926 133.953 118.126L134.774 118.696C133.641 120.33 132.438 121.912 131.171 123.437L130.402 122.798C127.899 125.811 125.139 128.601 122.157 131.134L122.804 131.896C121.292 133.18 119.723 134.4 118.102 135.549L117.523 134.734C114.343 136.989 110.959 138.973 107.405 140.652L107.832 141.556C106.042 142.401 104.21 143.17 102.339 143.859L101.994 142.92C98.36 144.258 94.5791 145.287 90.682 145.978L90.8564 146.962C88.9157 147.306 86.9466 147.567 84.9529 147.741L84.8658 146.745C82.9331 146.914 80.9767 147 79 147C77.0233 147 75.0669 146.914 73.1342 146.745L73.0471 147.741C71.0534 147.567 69.0843 147.306 67.1436 146.962L67.318 145.978C63.4209 145.287 59.64 144.258 56.0063 142.92L55.6608 143.859C53.7902 143.17 51.958 142.401 50.1683 141.556L50.5954 140.652C47.0413 138.973 43.6573 136.989 40.4767 134.734L39.8982 135.549C38.2773 134.4 36.7084 133.18 35.196 131.896L35.8433 131.134C32.8612 128.601 30.1014 125.811 27.5979 122.798L26.8287 123.437C25.5615 121.912 24.3591 120.33 23.2255 118.696L24.0472 118.126C21.8267 114.926 19.8747 111.523 18.2241 107.95L17.3163 108.37C16.4866 106.574 15.732 104.736 15.0563 102.859L15.9972 102.521C14.686 98.8791 13.6769 95.0914 13.0007 91.1883L12.0153 91.359C11.6789 89.4173 11.4237 87.4475 11.2533 85.4533L12.2496 85.3682C12.0844 83.4345 12 81.4773 12 79.5C12 77.5227 12.0844 75.5655 12.2496 73.6318L11.2533 73.5467C11.4237 71.5525 11.6789 69.5827 12.0154 67.641L13.0007 67.8117C13.6769 63.9086 14.686 60.1209 15.9972 56.4793L15.0563 56.1405C15.732 54.2642 16.4866 52.4261 17.3163 50.6303L18.2241 51.0497C19.8747 47.4769 21.8267 44.0739 24.0472 40.8736L23.2255 40.3036C24.3591 38.6699 25.5615 37.0883 26.8287 35.5631L27.5979 36.2021C30.1014 33.1886 32.8612 30.3987 35.8433 27.8662L35.196 27.1039C36.7084 25.8195 38.2773 24.6004 39.8982 23.4508L40.4767 24.2664C43.6573 22.0106 47.0413 20.0268 50.5954 18.3483L50.1683 17.444C51.958 16.5988 53.7902 15.8298 55.6608 15.1413L56.0063 16.0797C59.64 14.7422 63.4209 13.7126 67.318 13.0223L67.1436 12.0376C69.0843 11.6939 71.0534 11.433 73.0471 11.2589L73.1342 12.2551C75.0669 12.0862 77.0233 12 79 12C80.9767 12 82.9331 12.0862 84.8658 12.2551L84.9529 11.2589C86.9466 11.433 88.9157 11.6939 90.8564 12.0376L90.682 13.0223C94.5791 13.7126 98.36 14.7422 101.994 16.0797L102.339 15.1413C104.21 15.8298 106.042 16.5988 107.832 17.444L107.405 18.3483C110.959 20.0268 114.343 22.0106 117.523 24.2664L118.102 23.4508C119.723 24.6004 121.292 25.8195 122.804 27.1039L122.157 27.8662C125.139 30.3987 127.899 33.1886 130.402 36.2021L131.171 35.5631C132.438 37.0883 133.641 38.6698 134.774 40.3036L133.953 40.8736C136.173 44.0739 138.125 47.477 139.776 51.0497L140.684 50.6303C141.513 52.4261 142.268 54.2643 142.944 56.1406L142.003 56.4793C143.314 60.1209 144.323 63.9086 144.999 67.8117L145.985 67.641Z" stroke="#B084C8" stroke-width="2" stroke-linejoin="bevel" stroke-dasharray="12 6"/>
<defs>
<filter id="filter0_f" x="0" y="0" width="160" height="160" filterUnits="userSpaceOnUse" color-interpolation-filters="sRGB">
<feFlood flood-opacity="0" result="BackgroundImageFix"/>
<feBlend mode="normal" in="SourceGraphic" in2="BackgroundImageFix" result="shape"/>
<feGaussianBlur stdDeviation="4" result="effect1_foregroundBlur"/>
</filter>
</defs>
</svg>
