<svg width="39" height="39" viewBox="0 0 39 39" fill="none" xmlns="http://www.w3.org/2000/svg">
<circle cx="19.5" cy="19.5" r="19" stroke="white"/>
<path d="M21.0003 18.5002L24.0003 11C25.8752 9.45791 27.0982 9.20031 30.0003 11.0001C30.6502 12.3138 30.6753 13.075 30.0003 14.5001L24.0003 27.0002C23.2254 27.5539 22.7063 27.6294 21.5003 27.0002C21.5003 27.0002 15.9997 11.9999 15 11C14.0003 10.0002 8.99726 9.48451 8.50031 11C8.00337 12.5155 8.2581 12.7867 8.50033 13.5C8.50033 13.5 16.2399 30.0111 16.5 30.5C16.7601 30.9889 20.7677 31.6591 22.5 30.5C24.0549 28.4444 23.9817 28.8591 24 28.5" stroke="white"/>
</svg>
