<svg width="37" height="36" viewBox="0 0 37 36" fill="none" xmlns="http://www.w3.org/2000/svg">
<ellipse cx="18.0372" cy="17.5122" rx="18.0126" ry="17.487" transform="rotate(-0.0804699 18.0372 17.5122)" fill="#F3F5F7"/>
<path d="M13.8125 11.625H15.7812V19.6016C15.7812 20.6901 15.4401 21.5547 14.7578 22.1953C14.0807 22.8359 13.1849 23.1562 12.0703 23.1562C10.8828 23.1562 9.96615 22.8568 9.32031 22.2578C8.67448 21.6589 8.35156 20.8255 8.35156 19.7578H10.3203C10.3203 20.362 10.4688 20.8177 10.7656 21.125C11.0677 21.4271 11.5026 21.5781 12.0703 21.5781C12.6016 21.5781 13.0234 21.4036 13.3359 21.0547C13.6536 20.7005 13.8125 20.2135 13.8125 19.5938V11.625ZM18.1269 23V11.625H21.4862C22.4915 11.625 23.3821 11.849 24.1581 12.2969C24.9394 12.7448 25.5435 13.3802 25.9706 14.2031C26.3977 15.026 26.6112 15.9688 26.6112 17.0312V17.6016C26.6112 18.6797 26.3951 19.6276 25.9628 20.4453C25.5357 21.263 24.9237 21.8932 24.1269 22.3359C23.3352 22.7786 22.4264 23 21.4003 23H18.1269ZM20.1034 13.2188V21.4219H21.3925C22.429 21.4219 23.2232 21.099 23.7753 20.4531C24.3326 19.8021 24.6165 18.8698 24.6269 17.6562V17.0234C24.6269 15.7891 24.3586 14.8464 23.8222 14.1953C23.2857 13.5443 22.5071 13.2188 21.4862 13.2188H20.1034Z" fill="black"/>
</svg>
