<svg width="366" height="581" viewBox="0 0 366 581" fill="none" xmlns="http://www.w3.org/2000/svg">
<circle cx="42" cy="40" r="39.5" stroke="#A173C5" stroke-linejoin="bevel" stroke-dasharray="6 4"/>
<path d="M75.5 39.5C75.5 58.2846 60.4947 73.5 42 73.5C23.5053 73.5 8.5 58.2846 8.5 39.5C8.5 20.7154 23.5053 5.5 42 5.5C60.4947 5.5 75.5 20.7154 75.5 39.5Z" fill="#D39CBE" stroke="#642862"/>
<path d="M42 33V47M35 40H49" stroke="white" stroke-width="2"/>
<circle cx="184" cy="42" r="39.5" stroke="#A173C5" stroke-linejoin="bevel" stroke-dasharray="6 4"/>
<path d="M217.5 41.5C217.5 60.2846 202.495 75.5 184 75.5C165.505 75.5 150.5 60.2846 150.5 41.5C150.5 22.7154 165.505 7.5 184 7.5C202.495 7.5 217.5 22.7154 217.5 41.5Z" fill="#D09BBE" stroke="#642862"/>
<path d="M184 35V49M177 42H191" stroke="white" stroke-width="2"/>
<circle cx="326" cy="41" r="39.5" stroke="#A173C5" stroke-linejoin="bevel" stroke-dasharray="6 4"/>
<path d="M359.5 40.5C359.5 59.2846 344.495 74.5 326 74.5C307.505 74.5 292.5 59.2846 292.5 40.5C292.5 21.7154 307.505 6.5 326 6.5C344.495 6.5 359.5 21.7154 359.5 40.5Z" fill="#CD9BBE" stroke="#642862"/>
<path d="M326 34V48M319 41H333" stroke="white" stroke-width="2"/>
<circle cx="184" cy="166" r="39.5" stroke="#A173C5" stroke-linejoin="bevel" stroke-dasharray="6 4"/>
<path d="M217.5 165.5C217.5 184.285 202.495 199.5 184 199.5C165.505 199.5 150.5 184.285 150.5 165.5C150.5 146.715 165.505 131.5 184 131.5C202.495 131.5 217.5 146.715 217.5 165.5Z" fill="#CC9ABF" stroke="#642862"/>
<path d="M184 159V173M177 166H191" stroke="white" stroke-width="2"/>
<circle cx="184" cy="291" r="39.5" stroke="#A173C5" stroke-linejoin="bevel" stroke-dasharray="6 4"/>
<path d="M217.5 290.5C217.5 309.285 202.495 324.5 184 324.5C165.505 324.5 150.5 309.285 150.5 290.5C150.5 271.715 165.505 256.5 184 256.5C202.495 256.5 217.5 271.715 217.5 290.5Z" fill="#C899BF" stroke="#642862"/>
<path d="M184 284V298M177 291H191" stroke="white" stroke-width="2"/>
<circle cx="324" cy="291" r="39.5" stroke="#A173C5" stroke-linejoin="bevel" stroke-dasharray="6 4"/>
<path d="M357.5 290.5C357.5 309.285 342.495 324.5 324 324.5C305.505 324.5 290.5 309.285 290.5 290.5C290.5 271.715 305.505 256.5 324 256.5C342.495 256.5 357.5 271.715 357.5 290.5Z" fill="#C598BF" stroke="#642862"/>
<path d="M324 284V298M317 291H331" stroke="white" stroke-width="2"/>
<circle cx="40" cy="291" r="39.5" stroke="#A173C5" stroke-linejoin="bevel" stroke-dasharray="6 4"/>
<path d="M73.5 290.5C73.5 309.285 58.4947 324.5 40 324.5C21.5053 324.5 6.5 309.285 6.5 290.5C6.5 271.715 21.5053 256.5 40 256.5C58.4947 256.5 73.5 271.715 73.5 290.5Z" fill="#CB9ABF" stroke="#642862"/>
<path d="M40 284V298M33 291H47" stroke="white" stroke-width="2"/>
<circle cx="40" cy="416" r="39.5" stroke="#A173C5" stroke-linejoin="bevel" stroke-dasharray="6 4"/>
<path d="M73.5 415.5C73.5 434.285 58.4947 449.5 40 449.5C21.5053 449.5 6.5 434.285 6.5 415.5C6.5 396.715 21.5053 381.5 40 381.5C58.4947 381.5 73.5 396.715 73.5 415.5Z" fill="#C699BF" stroke="#642862"/>
<path d="M40 409V423M33 416H47" stroke="white" stroke-width="2"/>
<circle cx="184" cy="416" r="39.5" stroke="#A173C5" stroke-linejoin="bevel" stroke-dasharray="6 4"/>
<path d="M217.5 415.5C217.5 434.285 202.495 449.5 184 449.5C165.505 449.5 150.5 434.285 150.5 415.5C150.5 396.715 165.505 381.5 184 381.5C202.495 381.5 217.5 396.715 217.5 415.5Z" fill="#C298BF" stroke="#642862"/>
<path d="M184 409V423M177 416H191" stroke="white" stroke-width="2"/>
<circle cx="324" cy="417" r="39.5" stroke="#A173C5" stroke-linejoin="bevel" stroke-dasharray="6 4"/>
<path d="M357.5 416.5C357.5 435.285 342.495 450.5 324 450.5C305.505 450.5 290.5 435.285 290.5 416.5C290.5 397.715 305.505 382.5 324 382.5C342.495 382.5 357.5 397.715 357.5 416.5Z" fill="#BF95BE" stroke="#642862"/>
<path d="M324 410V424M317 417H331" stroke="white" stroke-width="2"/>
<circle cx="184" cy="541" r="39.5" stroke="#A173C5" stroke-linejoin="bevel" stroke-dasharray="6 4"/>
<path d="M217.5 540.5C217.5 559.285 202.495 574.5 184 574.5C165.505 574.5 150.5 559.285 150.5 540.5C150.5 521.715 165.505 506.5 184 506.5C202.495 506.5 217.5 521.715 217.5 540.5Z" fill="#BF97BF" stroke="#642862"/>
<path d="M184 534V548M177 541H191" stroke="white" stroke-width="2"/>
</svg>
