<svg width="394" height="589" viewBox="0 0 394 589" fill="none" xmlns="http://www.w3.org/2000/svg">
<circle cx="191" cy="155" r="39.5" stroke="#A173C5" stroke-linejoin="bevel" stroke-dasharray="6 4"/>
<path d="M224.5 154.5C224.5 173.285 209.495 188.5 191 188.5C172.505 188.5 157.5 173.285 157.5 154.5C157.5 135.715 172.505 120.5 191 120.5C209.495 120.5 224.5 135.715 224.5 154.5Z" fill="#CD9BBE" stroke="#642862"/>
<path d="M191 148V162M184 155H198" stroke="white" stroke-width="2"/>
<circle cx="191" cy="40" r="39.5" stroke="#A173C5" stroke-linejoin="bevel" stroke-dasharray="6 4"/>
<path d="M224.5 39.5C224.5 58.2846 209.495 73.5 191 73.5C172.505 73.5 157.5 58.2846 157.5 39.5C157.5 20.7154 172.505 5.5 191 5.5C209.495 5.5 224.5 20.7154 224.5 39.5Z" fill="#D39CBE" stroke="#642862"/>
<path d="M191 33V47M184 40H198" stroke="white" stroke-width="2"/>
<circle cx="335" cy="120" r="39.5" stroke="#A173C5" stroke-linejoin="bevel" stroke-dasharray="6 4"/>
<path d="M368.5 119.5C368.5 138.285 353.495 153.5 335 153.5C316.505 153.5 301.5 138.285 301.5 119.5C301.5 100.715 316.505 85.5 335 85.5C353.495 85.5 368.5 100.715 368.5 119.5Z" fill="#CD9BBE" stroke="#642862"/>
<path d="M335 113V127M328 120H342" stroke="white" stroke-width="2"/>
<circle cx="137" cy="292" r="39.5" stroke="#A173C5" stroke-linejoin="bevel" stroke-dasharray="6 4"/>
<path d="M170.5 291.5C170.5 310.285 155.495 325.5 137 325.5C118.505 325.5 103.5 310.285 103.5 291.5C103.5 272.715 118.505 257.5 137 257.5C155.495 257.5 170.5 272.715 170.5 291.5Z" fill="#CC9ABF" stroke="#642862"/>
<path d="M137 285V299M130 292H144" stroke="white" stroke-width="2"/>
<circle cx="252" cy="292" r="39.5" stroke="#A173C5" stroke-linejoin="bevel" stroke-dasharray="6 4"/>
<path d="M285.5 291.5C285.5 310.285 270.495 325.5 252 325.5C233.505 325.5 218.5 310.285 218.5 291.5C218.5 272.715 233.505 257.5 252 257.5C270.495 257.5 285.5 272.715 285.5 291.5Z" fill="#C899BF" stroke="#642862"/>
<path d="M252 285V299M245 292H259" stroke="white" stroke-width="2"/>
<circle cx="46" cy="120" r="39.5" stroke="#A173C5" stroke-linejoin="bevel" stroke-dasharray="6 4"/>
<path d="M79.5 119.5C79.5 138.285 64.4947 153.5 46 153.5C27.5053 153.5 12.5 138.285 12.5 119.5C12.5 100.715 27.5053 85.5 46 85.5C64.4947 85.5 79.5 100.715 79.5 119.5Z" fill="#C598BF" stroke="#642862"/>
<path d="M46 113V127M39 120H53" stroke="white" stroke-width="2"/>
<circle cx="252" cy="450" r="39.5" stroke="#A173C5" stroke-linejoin="bevel" stroke-dasharray="6 4"/>
<path d="M285.5 449.5C285.5 468.285 270.495 483.5 252 483.5C233.505 483.5 218.5 468.285 218.5 449.5C218.5 430.715 233.505 415.5 252 415.5C270.495 415.5 285.5 430.715 285.5 449.5Z" fill="#C298BF" stroke="#642862"/>
<path d="M252 443V457M245 450H259" stroke="white" stroke-width="2"/>
<circle cx="40" cy="403" r="39.5" stroke="#A173C5" stroke-linejoin="bevel" stroke-dasharray="6 4"/>
<path d="M73.5 402.5C73.5 421.285 58.4947 436.5 40 436.5C21.5053 436.5 6.5 421.285 6.5 402.5C6.5 383.715 21.5053 368.5 40 368.5C58.4947 368.5 73.5 383.715 73.5 402.5Z" fill="#C699BF" stroke="#642862"/>
<path d="M40 396V410M33 403H47" stroke="white" stroke-width="2"/>
<circle cx="137" cy="450" r="39.5" stroke="#A173C5" stroke-linejoin="bevel" stroke-dasharray="6 4"/>
<path d="M170.5 449.5C170.5 468.285 155.495 483.5 137 483.5C118.505 483.5 103.5 468.285 103.5 449.5C103.5 430.715 118.505 415.5 137 415.5C155.495 415.5 170.5 430.715 170.5 449.5Z" fill="#C298BF" stroke="#642862"/>
<path d="M137 443V457M130 450H144" stroke="white" stroke-width="2"/>
<circle cx="354" cy="424" r="39.5" stroke="#A173C5" stroke-linejoin="bevel" stroke-dasharray="6 4"/>
<path d="M387.5 423.5C387.5 442.285 372.495 457.5 354 457.5C335.505 457.5 320.5 442.285 320.5 423.5C320.5 404.715 335.505 389.5 354 389.5C372.495 389.5 387.5 404.715 387.5 423.5Z" fill="#BF95BE" stroke="#642862"/>
<path d="M354 417V431M347 424H361" stroke="white" stroke-width="2"/>
<circle cx="191" cy="549" r="39.5" stroke="#A173C5" stroke-linejoin="bevel" stroke-dasharray="6 4"/>
<path d="M224.5 548.5C224.5 567.285 209.495 582.5 191 582.5C172.505 582.5 157.5 567.285 157.5 548.5C157.5 529.715 172.505 514.5 191 514.5C209.495 514.5 224.5 529.715 224.5 548.5Z" fill="#BF97BF" stroke="#642862"/>
<path d="M191 542V556M184 549H198" stroke="white" stroke-width="2"/>
</svg>
