<svg width="394" height="566" viewBox="0 0 394 566" fill="none" xmlns="http://www.w3.org/2000/svg">
<circle cx="197" cy="223" r="39.5" stroke="#A173C5" stroke-linejoin="bevel" stroke-dasharray="6 4"/>
<path d="M230.5 222.5C230.5 241.285 215.495 256.5 197 256.5C178.505 256.5 163.5 241.285 163.5 222.5C163.5 203.715 178.505 188.5 197 188.5C215.495 188.5 230.5 203.715 230.5 222.5Z" fill="#CD9BBE" stroke="#642862"/>
<path d="M197 216V230M190 223H204" stroke="white" stroke-width="2"/>
<circle cx="198" cy="40" r="39.5" stroke="#A173C5" stroke-linejoin="bevel" stroke-dasharray="6 4"/>
<path d="M231.5 39.5C231.5 58.2846 216.495 73.5 198 73.5C179.505 73.5 164.5 58.2846 164.5 39.5C164.5 20.7154 179.505 5.5 198 5.5C216.495 5.5 231.5 20.7154 231.5 39.5Z" fill="#D39CBE" stroke="#642862"/>
<path d="M198 33V47M191 40H205" stroke="white" stroke-width="2"/>
<circle cx="292" cy="148" r="39.5" stroke="#A173C5" stroke-linejoin="bevel" stroke-dasharray="6 4"/>
<path d="M325.5 147.5C325.5 166.285 310.495 181.5 292 181.5C273.505 181.5 258.5 166.285 258.5 147.5C258.5 128.715 273.505 113.5 292 113.5C310.495 113.5 325.5 128.715 325.5 147.5Z" fill="#CD9BBE" stroke="#642862"/>
<path d="M292 141V155M285 148H299" stroke="white" stroke-width="2"/>
<circle cx="123" cy="300" r="39.5" stroke="#A173C5" stroke-linejoin="bevel" stroke-dasharray="6 4"/>
<path d="M156.5 299.5C156.5 318.285 141.495 333.5 123 333.5C104.505 333.5 89.5 318.285 89.5 299.5C89.5 280.715 104.505 265.5 123 265.5C141.495 265.5 156.5 280.715 156.5 299.5Z" fill="#CC9ABF" stroke="#642862"/>
<path d="M123 293V307M116 300H130" stroke="white" stroke-width="2"/>
<circle cx="274" cy="300" r="39.5" stroke="#A173C5" stroke-linejoin="bevel" stroke-dasharray="6 4"/>
<path d="M307.5 299.5C307.5 318.285 292.495 333.5 274 333.5C255.505 333.5 240.5 318.285 240.5 299.5C240.5 280.715 255.505 265.5 274 265.5C292.495 265.5 307.5 280.715 307.5 299.5Z" fill="#C899BF" stroke="#642862"/>
<path d="M274 293V307M267 300H281" stroke="white" stroke-width="2"/>
<circle cx="104" cy="148" r="39.5" stroke="#A173C5" stroke-linejoin="bevel" stroke-dasharray="6 4"/>
<path d="M137.5 147.5C137.5 166.285 122.495 181.5 104 181.5C85.5053 181.5 70.5 166.285 70.5 147.5C70.5 128.715 85.5053 113.5 104 113.5C122.495 113.5 137.5 128.715 137.5 147.5Z" fill="#C598BF" stroke="#642862"/>
<path d="M104 141V155M97 148H111" stroke="white" stroke-width="2"/>
<circle cx="252" cy="427" r="39.5" stroke="#A173C5" stroke-linejoin="bevel" stroke-dasharray="6 4"/>
<path d="M285.5 426.5C285.5 445.285 270.495 460.5 252 460.5C233.505 460.5 218.5 445.285 218.5 426.5C218.5 407.715 233.505 392.5 252 392.5C270.495 392.5 285.5 407.715 285.5 426.5Z" fill="#C298BF" stroke="#642862"/>
<path d="M252 420V434M245 427H259" stroke="white" stroke-width="2"/>
<circle cx="40" cy="380" r="39.5" stroke="#A173C5" stroke-linejoin="bevel" stroke-dasharray="6 4"/>
<path d="M73.5 379.5C73.5 398.285 58.4947 413.5 40 413.5C21.5053 413.5 6.5 398.285 6.5 379.5C6.5 360.715 21.5053 345.5 40 345.5C58.4947 345.5 73.5 360.715 73.5 379.5Z" fill="#C699BF" stroke="#642862"/>
<path d="M40 373V387M33 380H47" stroke="white" stroke-width="2"/>
<circle cx="137" cy="427" r="39.5" stroke="#A173C5" stroke-linejoin="bevel" stroke-dasharray="6 4"/>
<path d="M170.5 426.5C170.5 445.285 155.495 460.5 137 460.5C118.505 460.5 103.5 445.285 103.5 426.5C103.5 407.715 118.505 392.5 137 392.5C155.495 392.5 170.5 407.715 170.5 426.5Z" fill="#C298BF" stroke="#642862"/>
<path d="M137 420V434M130 427H144" stroke="white" stroke-width="2"/>
<circle cx="354" cy="401" r="39.5" stroke="#A173C5" stroke-linejoin="bevel" stroke-dasharray="6 4"/>
<path d="M387.5 400.5C387.5 419.285 372.495 434.5 354 434.5C335.505 434.5 320.5 419.285 320.5 400.5C320.5 381.715 335.505 366.5 354 366.5C372.495 366.5 387.5 381.715 387.5 400.5Z" fill="#BF95BE" stroke="#642862"/>
<path d="M354 394V408M347 401H361" stroke="white" stroke-width="2"/>
<circle cx="191" cy="526" r="39.5" stroke="#A173C5" stroke-linejoin="bevel" stroke-dasharray="6 4"/>
<path d="M224.5 525.5C224.5 544.285 209.495 559.5 191 559.5C172.505 559.5 157.5 544.285 157.5 525.5C157.5 506.715 172.505 491.5 191 491.5C209.495 491.5 224.5 506.715 224.5 525.5Z" fill="#BF97BF" stroke="#642862"/>
<path d="M191 519V533M184 526H198" stroke="white" stroke-width="2"/>
</svg>
