<svg width="394" height="569" viewBox="0 0 394 569" fill="none" xmlns="http://www.w3.org/2000/svg">
<circle cx="197" cy="279" r="39.5" stroke="#A173C5" stroke-linejoin="bevel" stroke-dasharray="6 4"/>
<path d="M230.5 278.5C230.5 297.285 215.495 312.5 197 312.5C178.505 312.5 163.5 297.285 163.5 278.5C163.5 259.715 178.505 244.5 197 244.5C215.495 244.5 230.5 259.715 230.5 278.5Z" fill="#CD9BBE" stroke="#642862"/>
<path d="M197 272V286M190 279H204" stroke="white" stroke-width="2"/>
<circle cx="198" cy="40" r="39.5" stroke="#A173C5" stroke-linejoin="bevel" stroke-dasharray="6 4"/>
<path d="M231.5 39.5C231.5 58.2846 216.495 73.5 198 73.5C179.505 73.5 164.5 58.2846 164.5 39.5C164.5 20.7154 179.505 5.5 198 5.5C216.495 5.5 231.5 20.7154 231.5 39.5Z" fill="#D39CBE" stroke="#642862"/>
<path d="M198 33V47M191 40H205" stroke="white" stroke-width="2"/>
<circle cx="347" cy="80" r="39.5" stroke="#A173C5" stroke-linejoin="bevel" stroke-dasharray="6 4"/>
<path d="M380.5 79.5C380.5 98.2846 365.495 113.5 347 113.5C328.505 113.5 313.5 98.2846 313.5 79.5C313.5 60.7154 328.505 45.5 347 45.5C365.495 45.5 380.5 60.7154 380.5 79.5Z" fill="#CD9BBE" stroke="#642862"/>
<path d="M347 73V87M340 80H354" stroke="white" stroke-width="2"/>
<circle cx="82" cy="232" r="39.5" stroke="#A173C5" stroke-linejoin="bevel" stroke-dasharray="6 4"/>
<path d="M115.5 231.5C115.5 250.285 100.495 265.5 82 265.5C63.5053 265.5 48.5 250.285 48.5 231.5C48.5 212.715 63.5053 197.5 82 197.5C100.495 197.5 115.5 212.715 115.5 231.5Z" fill="#CC9ABF" stroke="#642862"/>
<path d="M82 225V239M75 232H89" stroke="white" stroke-width="2"/>
<circle cx="320" cy="234" r="39.5" stroke="#A173C5" stroke-linejoin="bevel" stroke-dasharray="6 4"/>
<path d="M353.5 233.5C353.5 252.285 338.495 267.5 320 267.5C301.505 267.5 286.5 252.285 286.5 233.5C286.5 214.715 301.505 199.5 320 199.5C338.495 199.5 353.5 214.715 353.5 233.5Z" fill="#C899BF" stroke="#642862"/>
<path d="M320 227V241M313 234H327" stroke="white" stroke-width="2"/>
<circle cx="46" cy="80" r="39.5" stroke="#A173C5" stroke-linejoin="bevel" stroke-dasharray="6 4"/>
<path d="M79.5 79.5C79.5 98.2846 64.4947 113.5 46 113.5C27.5053 113.5 12.5 98.2846 12.5 79.5C12.5 60.7154 27.5053 45.5 46 45.5C64.4947 45.5 79.5 60.7154 79.5 79.5Z" fill="#C598BF" stroke="#642862"/>
<path d="M46 73V87M39 80H53" stroke="white" stroke-width="2"/>
<circle cx="252" cy="430" r="39.5" stroke="#A173C5" stroke-linejoin="bevel" stroke-dasharray="6 4"/>
<path d="M285.5 429.5C285.5 448.285 270.495 463.5 252 463.5C233.505 463.5 218.5 448.285 218.5 429.5C218.5 410.715 233.505 395.5 252 395.5C270.495 395.5 285.5 410.715 285.5 429.5Z" fill="#C298BF" stroke="#642862"/>
<path d="M252 423V437M245 430H259" stroke="white" stroke-width="2"/>
<circle cx="40" cy="383" r="39.5" stroke="#A173C5" stroke-linejoin="bevel" stroke-dasharray="6 4"/>
<path d="M73.5 382.5C73.5 401.285 58.4947 416.5 40 416.5C21.5053 416.5 6.5 401.285 6.5 382.5C6.5 363.715 21.5053 348.5 40 348.5C58.4947 348.5 73.5 363.715 73.5 382.5Z" fill="#C699BF" stroke="#642862"/>
<path d="M40 376V390M33 383H47" stroke="white" stroke-width="2"/>
<circle cx="137" cy="430" r="39.5" stroke="#A173C5" stroke-linejoin="bevel" stroke-dasharray="6 4"/>
<path d="M170.5 429.5C170.5 448.285 155.495 463.5 137 463.5C118.505 463.5 103.5 448.285 103.5 429.5C103.5 410.715 118.505 395.5 137 395.5C155.495 395.5 170.5 410.715 170.5 429.5Z" fill="#C298BF" stroke="#642862"/>
<path d="M137 423V437M130 430H144" stroke="white" stroke-width="2"/>
<circle cx="354" cy="404" r="39.5" stroke="#A173C5" stroke-linejoin="bevel" stroke-dasharray="6 4"/>
<path d="M387.5 403.5C387.5 422.285 372.495 437.5 354 437.5C335.505 437.5 320.5 422.285 320.5 403.5C320.5 384.715 335.505 369.5 354 369.5C372.495 369.5 387.5 384.715 387.5 403.5Z" fill="#BF95BE" stroke="#642862"/>
<path d="M354 397V411M347 404H361" stroke="white" stroke-width="2"/>
<circle cx="191" cy="529" r="39.5" stroke="#A173C5" stroke-linejoin="bevel" stroke-dasharray="6 4"/>
<path d="M224.5 528.5C224.5 547.285 209.495 562.5 191 562.5C172.505 562.5 157.5 547.285 157.5 528.5C157.5 509.715 172.505 494.5 191 494.5C209.495 494.5 224.5 509.715 224.5 528.5Z" fill="#BF97BF" stroke="#642862"/>
<path d="M191 522V536M184 529H198" stroke="white" stroke-width="2"/>
</svg>
