<svg width="395" height="557" viewBox="0 0 395 557" fill="none" xmlns="http://www.w3.org/2000/svg">
<circle cx="137" cy="40" r="39.5" stroke="#A173C5" stroke-linejoin="bevel" stroke-dasharray="6 4"/>
<path d="M170.5 39.5C170.5 58.2846 155.495 73.5 137 73.5C118.505 73.5 103.5 58.2846 103.5 39.5C103.5 20.7154 118.505 5.5 137 5.5C155.495 5.5 170.5 20.7154 170.5 39.5Z" fill="#CD9BBE" stroke="#642862"/>
<path d="M137 33V47M130 40H144" stroke="white" stroke-width="2"/>
<circle cx="259" cy="40" r="39.5" stroke="#A173C5" stroke-linejoin="bevel" stroke-dasharray="6 4"/>
<path d="M292.5 39.5C292.5 58.2846 277.495 73.5 259 73.5C240.505 73.5 225.5 58.2846 225.5 39.5C225.5 20.7154 240.505 5.5 259 5.5C277.495 5.5 292.5 20.7154 292.5 39.5Z" fill="#D39CBE" stroke="#642862"/>
<path d="M259 33V47M252 40H266" stroke="white" stroke-width="2"/>
<circle cx="355" cy="155" r="39.5" stroke="#A173C5" stroke-linejoin="bevel" stroke-dasharray="6 4"/>
<path d="M388.5 154.5C388.5 173.285 373.495 188.5 355 188.5C336.505 188.5 321.5 173.285 321.5 154.5C321.5 135.715 336.505 120.5 355 120.5C373.495 120.5 388.5 135.715 388.5 154.5Z" fill="#CD9BBE" stroke="#642862"/>
<path d="M355 148V162M348 155H362" stroke="white" stroke-width="2"/>
<circle cx="137" cy="223" r="39.5" stroke="#A173C5" stroke-linejoin="bevel" stroke-dasharray="6 4"/>
<path d="M170.5 222.5C170.5 241.285 155.495 256.5 137 256.5C118.505 256.5 103.5 241.285 103.5 222.5C103.5 203.715 118.505 188.5 137 188.5C155.495 188.5 170.5 203.715 170.5 222.5Z" fill="#CC9ABF" stroke="#642862"/>
<path d="M137 216V230M130 223H144" stroke="white" stroke-width="2"/>
<circle cx="258" cy="223" r="39.5" stroke="#A173C5" stroke-linejoin="bevel" stroke-dasharray="6 4"/>
<path d="M291.5 222.5C291.5 241.285 276.495 256.5 258 256.5C239.505 256.5 224.5 241.285 224.5 222.5C224.5 203.715 239.505 188.5 258 188.5C276.495 188.5 291.5 203.715 291.5 222.5Z" fill="#C899BF" stroke="#642862"/>
<path d="M258 216V230M251 223H265" stroke="white" stroke-width="2"/>
<circle cx="40" cy="155" r="39.5" stroke="#A173C5" stroke-linejoin="bevel" stroke-dasharray="6 4"/>
<path d="M73.5 154.5C73.5 173.285 58.4947 188.5 40 188.5C21.5053 188.5 6.5 173.285 6.5 154.5C6.5 135.715 21.5053 120.5 40 120.5C58.4947 120.5 73.5 135.715 73.5 154.5Z" fill="#C598BF" stroke="#642862"/>
<path d="M40 148V162M33 155H47" stroke="white" stroke-width="2"/>
<circle cx="252" cy="418" r="39.5" stroke="#A173C5" stroke-linejoin="bevel" stroke-dasharray="6 4"/>
<path d="M285.5 417.5C285.5 436.285 270.495 451.5 252 451.5C233.505 451.5 218.5 436.285 218.5 417.5C218.5 398.715 233.505 383.5 252 383.5C270.495 383.5 285.5 398.715 285.5 417.5Z" fill="#C298BF" stroke="#642862"/>
<path d="M252 411V425M245 418H259" stroke="white" stroke-width="2"/>
<circle cx="40" cy="371" r="39.5" stroke="#A173C5" stroke-linejoin="bevel" stroke-dasharray="6 4"/>
<path d="M73.5 370.5C73.5 389.285 58.4947 404.5 40 404.5C21.5053 404.5 6.5 389.285 6.5 370.5C6.5 351.715 21.5053 336.5 40 336.5C58.4947 336.5 73.5 351.715 73.5 370.5Z" fill="#C699BF" stroke="#642862"/>
<path d="M40 364V378M33 371H47" stroke="white" stroke-width="2"/>
<circle cx="137" cy="418" r="39.5" stroke="#A173C5" stroke-linejoin="bevel" stroke-dasharray="6 4"/>
<path d="M170.5 417.5C170.5 436.285 155.495 451.5 137 451.5C118.505 451.5 103.5 436.285 103.5 417.5C103.5 398.715 118.505 383.5 137 383.5C155.495 383.5 170.5 398.715 170.5 417.5Z" fill="#C298BF" stroke="#642862"/>
<path d="M137 411V425M130 418H144" stroke="white" stroke-width="2"/>
<circle cx="354" cy="392" r="39.5" stroke="#A173C5" stroke-linejoin="bevel" stroke-dasharray="6 4"/>
<path d="M387.5 391.5C387.5 410.285 372.495 425.5 354 425.5C335.505 425.5 320.5 410.285 320.5 391.5C320.5 372.715 335.505 357.5 354 357.5C372.495 357.5 387.5 372.715 387.5 391.5Z" fill="#BF95BE" stroke="#642862"/>
<path d="M354 385V399M347 392H361" stroke="white" stroke-width="2"/>
<circle cx="191" cy="517" r="39.5" stroke="#A173C5" stroke-linejoin="bevel" stroke-dasharray="6 4"/>
<path d="M224.5 516.5C224.5 535.285 209.495 550.5 191 550.5C172.505 550.5 157.5 535.285 157.5 516.5C157.5 497.715 172.505 482.5 191 482.5C209.495 482.5 224.5 497.715 224.5 516.5Z" fill="#BF97BF" stroke="#642862"/>
<path d="M191 510V524M184 517H198" stroke="white" stroke-width="2"/>
</svg>
