<svg width="402" height="581" viewBox="0 0 402 581" fill="none" xmlns="http://www.w3.org/2000/svg">
<circle cx="80" cy="146" r="39.5" stroke="#A173C5" stroke-linejoin="bevel" stroke-dasharray="6 4"/>
<path d="M113.5 145.5C113.5 164.285 98.4947 179.5 80 179.5C61.5053 179.5 46.5 164.285 46.5 145.5C46.5 126.715 61.5053 111.5 80 111.5C98.4947 111.5 113.5 126.715 113.5 145.5Z" fill="#CD9BBE" stroke="#642862"/>
<path d="M80 139V153M73 146H87" stroke="white" stroke-width="2"/>
<circle cx="205" cy="40" r="39.5" stroke="#A173C5" stroke-linejoin="bevel" stroke-dasharray="6 4"/>
<path d="M238.5 39.5C238.5 58.2846 223.495 73.5 205 73.5C186.505 73.5 171.5 58.2846 171.5 39.5C171.5 20.7154 186.505 5.5 205 5.5C223.495 5.5 238.5 20.7154 238.5 39.5Z" fill="#D39CBE" stroke="#642862"/>
<path d="M205 33V47M198 40H212" stroke="white" stroke-width="2"/>
<circle cx="322" cy="146" r="39.5" stroke="#A173C5" stroke-linejoin="bevel" stroke-dasharray="6 4"/>
<path d="M355.5 145.5C355.5 164.285 340.495 179.5 322 179.5C303.505 179.5 288.5 164.285 288.5 145.5C288.5 126.715 303.505 111.5 322 111.5C340.495 111.5 355.5 126.715 355.5 145.5Z" fill="#CD9BBE" stroke="#642862"/>
<path d="M322 139V153M315 146H329" stroke="white" stroke-width="2"/>
<circle cx="146" cy="254" r="39.5" stroke="#A173C5" stroke-linejoin="bevel" stroke-dasharray="6 4"/>
<path d="M179.5 253.5C179.5 272.285 164.495 287.5 146 287.5C127.505 287.5 112.5 272.285 112.5 253.5C112.5 234.715 127.505 219.5 146 219.5C164.495 219.5 179.5 234.715 179.5 253.5Z" fill="#CC9ABF" stroke="#642862"/>
<path d="M146 247V261M139 254H153" stroke="white" stroke-width="2"/>
<circle cx="261" cy="254" r="39.5" stroke="#A173C5" stroke-linejoin="bevel" stroke-dasharray="6 4"/>
<path d="M294.5 253.5C294.5 272.285 279.495 287.5 261 287.5C242.505 287.5 227.5 272.285 227.5 253.5C227.5 234.715 242.505 219.5 261 219.5C279.495 219.5 294.5 234.715 294.5 253.5Z" fill="#C899BF" stroke="#642862"/>
<path d="M261 247V261M254 254H268" stroke="white" stroke-width="2"/>
<circle cx="362" cy="348" r="39.5" stroke="#A173C5" stroke-linejoin="bevel" stroke-dasharray="6 4"/>
<path d="M395.5 347.5C395.5 366.285 380.495 381.5 362 381.5C343.505 381.5 328.5 366.285 328.5 347.5C328.5 328.715 343.505 313.5 362 313.5C380.495 313.5 395.5 328.715 395.5 347.5Z" fill="#C598BF" stroke="#642862"/>
<path d="M362 341V355M355 348H369" stroke="white" stroke-width="2"/>
<circle cx="198" cy="442" r="39.5" stroke="#A173C5" stroke-linejoin="bevel" stroke-dasharray="6 4"/>
<path d="M231.5 441.5C231.5 460.285 216.495 475.5 198 475.5C179.505 475.5 164.5 460.285 164.5 441.5C164.5 422.715 179.505 407.5 198 407.5C216.495 407.5 231.5 422.715 231.5 441.5Z" fill="#C298BF" stroke="#642862"/>
<path d="M198 435V449M191 442H205" stroke="white" stroke-width="2"/>
<circle cx="40" cy="348" r="39.5" stroke="#A173C5" stroke-linejoin="bevel" stroke-dasharray="6 4"/>
<path d="M73.5 347.5C73.5 366.285 58.4947 381.5 40 381.5C21.5053 381.5 6.5 366.285 6.5 347.5C6.5 328.715 21.5053 313.5 40 313.5C58.4947 313.5 73.5 328.715 73.5 347.5Z" fill="#C699BF" stroke="#642862"/>
<path d="M40 341V355M33 348H47" stroke="white" stroke-width="2"/>
<circle cx="91" cy="442" r="39.5" stroke="#A173C5" stroke-linejoin="bevel" stroke-dasharray="6 4"/>
<path d="M124.5 441.5C124.5 460.285 109.495 475.5 91 475.5C72.5053 475.5 57.5 460.285 57.5 441.5C57.5 422.715 72.5053 407.5 91 407.5C109.495 407.5 124.5 422.715 124.5 441.5Z" fill="#C298BF" stroke="#642862"/>
<path d="M91 435V449M84 442H98" stroke="white" stroke-width="2"/>
<circle cx="308" cy="442" r="39.5" stroke="#A173C5" stroke-linejoin="bevel" stroke-dasharray="6 4"/>
<path d="M341.5 441.5C341.5 460.285 326.495 475.5 308 475.5C289.505 475.5 274.5 460.285 274.5 441.5C274.5 422.715 289.505 407.5 308 407.5C326.495 407.5 341.5 422.715 341.5 441.5Z" fill="#BF95BE" stroke="#642862"/>
<path d="M308 435V449M301 442H315" stroke="white" stroke-width="2"/>
<circle cx="198" cy="541" r="39.5" stroke="#A173C5" stroke-linejoin="bevel" stroke-dasharray="6 4"/>
<path d="M231.5 540.5C231.5 559.285 216.495 574.5 198 574.5C179.505 574.5 164.5 559.285 164.5 540.5C164.5 521.715 179.505 506.5 198 506.5C216.495 506.5 231.5 521.715 231.5 540.5Z" fill="#BF97BF" stroke="#642862"/>
<path d="M198 534V548M191 541H205" stroke="white" stroke-width="2"/>
</svg>
